<svg width="512" height="512" viewBox="0 0 512 512" fill="none" xmlns="http://www.w3.org/2000/svg">
<g clip-path="url(#clip0_964_2)">
<path d="M0 50C0 22.3858 22.3858 0 50 0H462C489.614 0 512 22.3858 512 50V104C512 131.614 489.614 154 462 154H50C22.3858 154 0 131.614 0 104V50Z" fill="#F9F9F9"/>
<path d="M0 229C0 201.386 22.3858 179 50 179H462C489.614 179 512 201.386 512 229V283C512 310.614 489.614 333 462 333H50C22.3858 333 0 310.614 0 283V229Z" fill="#F9F9F9"/>
<path d="M0 408C0 380.386 22.3858 358 50 358H462C489.614 358 512 380.386 512 408V462C512 489.614 489.614 512 462 512H50C22.3858 512 0 489.614 0 462V408Z" fill="#F9F9F9"/>
<path d="M53 78C53 64.1929 64.1929 53 78 53H229C242.807 53 254 64.1929 254 78C254 91.8071 242.807 103 229 103H78C64.1929 103 53 91.8071 53 78Z" fill="#171717"/>
<path d="M53 256.5C53 242.417 64.4167 231 78.5 231H228.5C242.583 231 254 242.417 254 256.5C254 270.583 242.583 282 228.5 282H78.5C64.4167 282 53 270.583 53 256.5Z" fill="#171717"/>
<path d="M53 435.5C53 421.417 64.4167 410 78.5 410H228.5C242.583 410 254 421.417 254 435.5C254 449.583 242.583 461 228.5 461H78.5C64.4167 461 53 449.583 53 435.5Z" fill="#171717"/>
<path d="M410 78C410 64.1937 421.864 53 436.499 53C451.136 53 463 64.1937 463 78C463 91.8063 451.136 103 436.499 103C421.864 103 410 91.8063 410 78Z" fill="#171717"/>
<path d="M410 256.499C410 242.416 421.864 231 436.499 231C451.136 231 463 242.416 463 256.499C463 270.584 451.136 282 436.499 282C421.864 282 410 270.584 410 256.499Z" fill="#171717"/>
<path d="M410 435.501C410 421.416 421.864 410 436.499 410C451.136 410 463 421.416 463 435.501C463 449.584 451.136 461 436.499 461C421.864 461 410 449.584 410 435.501Z" fill="#171717"/>
</g>
<defs>
<clipPath id="clip0_964_2">
<rect width="512" height="512" fill="white"/>
</clipPath>
</defs>
</svg>
