<svg width="512" height="512" viewBox="0 0 512 512" fill="none" xmlns="http://www.w3.org/2000/svg">
<g clip-path="url(#clip0_964_14)">
<path d="M0 50C0 22.3858 22.3858 0 50 0H462C489.614 0 512 22.3858 512 50V104C512 131.614 489.614 154 462 154H50C22.3858 154 0 131.614 0 104V50Z" fill="#171717"/>
<path d="M0 229C0 201.386 22.3858 179 50 179H462C489.614 179 512 201.386 512 229V283C512 310.614 489.614 333 462 333H50C22.3858 333 0 310.614 0 283V229Z" fill="#171717"/>
<path d="M0 408C0 380.386 22.3858 358 50 358H462C489.614 358 512 380.386 512 408V462C512 489.614 489.614 512 462 512H50C22.3858 512 0 489.614 0 462V408Z" fill="#171717"/>
<path d="M52 78C52 63.6406 63.6406 52 78 52H227C241.359 52 253 63.6406 253 78C253 92.3594 241.359 104 227 104H78C63.6406 104 52 92.3594 52 78Z" fill="#E5E5E5"/>
<path d="M52 257C52 242.641 63.6406 231 78 231H227C241.359 231 253 242.641 253 257C253 271.359 241.359 283 227 283H78C63.6406 283 52 271.359 52 257Z" fill="#E5E5E5"/>
<path d="M52 435.5C52 421.417 63.4167 410 77.5 410H227.5C241.583 410 253 421.417 253 435.5C253 449.583 241.583 461 227.5 461H77.5C63.4167 461 52 449.583 52 435.5Z" fill="#E5E5E5"/>
<path d="M411 78C411 63.6414 422.64 52 436.999 52C451.36 52 463 63.6414 463 78C463 92.3586 451.36 104 436.999 104C422.64 104 411 92.3586 411 78Z" fill="#E5E5E5"/>
<path d="M411 256.999C411 242.64 422.64 231 436.999 231C451.36 231 463 242.64 463 256.999C463 271.36 451.36 283 436.999 283C422.64 283 411 271.36 411 256.999Z" fill="#E5E5E5"/>
<path d="M411 435.501C411 421.416 422.64 410 436.999 410C451.36 410 463 421.416 463 435.501C463 449.584 451.36 461 436.999 461C422.64 461 411 449.584 411 435.501Z" fill="#E5E5E5"/>
</g>
<defs>
<clipPath id="clip0_964_14">
<rect width="512" height="512" fill="white"/>
</clipPath>
</defs>
</svg>
